<mxfile host="app.diagrams.net" agent="Mozilla/5.0 (Windows NT 10.0; Win64; x64) AppleWebKit/537.36 (KHTML, like Gecko) Chrome/128.0.0.0 Safari/537.36" version="24.7.10">
  <diagram name="Page-1" id="X8nFNXbNYlkd-QCMYHfx">
    <mxGraphModel dx="974" dy="479" grid="1" gridSize="10" guides="1" tooltips="1" connect="1" arrows="1" fold="1" page="1" pageScale="1" pageWidth="850" pageHeight="1100" math="0" shadow="0">
      <root>
        <mxCell id="0" />
        <mxCell id="1" parent="0" />
        <mxCell id="iNJiOeS6aKAyRJWFS6jW-6" style="edgeStyle=orthogonalEdgeStyle;rounded=0;orthogonalLoop=1;jettySize=auto;html=1;" edge="1" parent="1" source="iNJiOeS6aKAyRJWFS6jW-2" target="iNJiOeS6aKAyRJWFS6jW-4">
          <mxGeometry relative="1" as="geometry" />
        </mxCell>
        <mxCell id="iNJiOeS6aKAyRJWFS6jW-2" value="&lt;font style=&quot;font-size: 12px;&quot;&gt;Defining the Problem&lt;/font&gt;" style="rounded=1;whiteSpace=wrap;html=1;absoluteArcSize=1;arcSize=14;strokeWidth=2;" vertex="1" parent="1">
          <mxGeometry x="50" y="60" width="160" height="60" as="geometry" />
        </mxCell>
        <mxCell id="iNJiOeS6aKAyRJWFS6jW-7" style="edgeStyle=orthogonalEdgeStyle;rounded=0;orthogonalLoop=1;jettySize=auto;html=1;" edge="1" parent="1" source="iNJiOeS6aKAyRJWFS6jW-4" target="iNJiOeS6aKAyRJWFS6jW-5">
          <mxGeometry relative="1" as="geometry" />
        </mxCell>
        <mxCell id="iNJiOeS6aKAyRJWFS6jW-4" value="&lt;font style=&quot;font-size: 12px;&quot;&gt;Data Collection and Preparation&lt;/font&gt;" style="rounded=1;whiteSpace=wrap;html=1;absoluteArcSize=1;arcSize=14;strokeWidth=2;" vertex="1" parent="1">
          <mxGeometry x="240" y="60" width="170" height="60" as="geometry" />
        </mxCell>
        <mxCell id="iNJiOeS6aKAyRJWFS6jW-9" style="edgeStyle=orthogonalEdgeStyle;rounded=0;orthogonalLoop=1;jettySize=auto;html=1;" edge="1" parent="1" source="iNJiOeS6aKAyRJWFS6jW-5" target="iNJiOeS6aKAyRJWFS6jW-8">
          <mxGeometry relative="1" as="geometry" />
        </mxCell>
        <mxCell id="iNJiOeS6aKAyRJWFS6jW-5" value="&lt;font style=&quot;font-size: 12px;&quot;&gt;Data Augmentation and Upsampling&lt;/font&gt;" style="rounded=1;whiteSpace=wrap;html=1;absoluteArcSize=1;arcSize=14;strokeWidth=2;" vertex="1" parent="1">
          <mxGeometry x="440" y="60" width="180" height="60" as="geometry" />
        </mxCell>
        <mxCell id="iNJiOeS6aKAyRJWFS6jW-15" style="edgeStyle=orthogonalEdgeStyle;rounded=0;orthogonalLoop=1;jettySize=auto;html=1;entryX=1;entryY=0.5;entryDx=0;entryDy=0;" edge="1" parent="1" source="iNJiOeS6aKAyRJWFS6jW-8" target="iNJiOeS6aKAyRJWFS6jW-10">
          <mxGeometry relative="1" as="geometry">
            <Array as="points">
              <mxPoint x="850" y="90" />
              <mxPoint x="850" y="180" />
            </Array>
          </mxGeometry>
        </mxCell>
        <mxCell id="iNJiOeS6aKAyRJWFS6jW-8" value="&lt;font style=&quot;font-size: 12px;&quot;&gt;Dataset Splitting&lt;/font&gt;" style="rounded=1;whiteSpace=wrap;html=1;absoluteArcSize=1;arcSize=14;strokeWidth=2;" vertex="1" parent="1">
          <mxGeometry x="650" y="60" width="180" height="60" as="geometry" />
        </mxCell>
        <mxCell id="iNJiOeS6aKAyRJWFS6jW-18" style="edgeStyle=orthogonalEdgeStyle;rounded=0;orthogonalLoop=1;jettySize=auto;html=1;" edge="1" parent="1" source="iNJiOeS6aKAyRJWFS6jW-10" target="iNJiOeS6aKAyRJWFS6jW-11">
          <mxGeometry relative="1" as="geometry" />
        </mxCell>
        <mxCell id="iNJiOeS6aKAyRJWFS6jW-10" value="Model Selection" style="rounded=1;whiteSpace=wrap;html=1;absoluteArcSize=1;arcSize=14;strokeWidth=2;" vertex="1" parent="1">
          <mxGeometry x="650" y="150" width="180" height="60" as="geometry" />
        </mxCell>
        <mxCell id="iNJiOeS6aKAyRJWFS6jW-19" style="edgeStyle=orthogonalEdgeStyle;rounded=0;orthogonalLoop=1;jettySize=auto;html=1;" edge="1" parent="1" source="iNJiOeS6aKAyRJWFS6jW-11" target="iNJiOeS6aKAyRJWFS6jW-12">
          <mxGeometry relative="1" as="geometry" />
        </mxCell>
        <mxCell id="iNJiOeS6aKAyRJWFS6jW-11" value="&lt;font style=&quot;font-size: 12px;&quot;&gt;Model Training&lt;/font&gt;" style="rounded=1;whiteSpace=wrap;html=1;absoluteArcSize=1;arcSize=14;strokeWidth=2;" vertex="1" parent="1">
          <mxGeometry x="440" y="150" width="180" height="60" as="geometry" />
        </mxCell>
        <mxCell id="iNJiOeS6aKAyRJWFS6jW-24" style="edgeStyle=orthogonalEdgeStyle;rounded=0;orthogonalLoop=1;jettySize=auto;html=1;" edge="1" parent="1" source="iNJiOeS6aKAyRJWFS6jW-12" target="iNJiOeS6aKAyRJWFS6jW-13">
          <mxGeometry relative="1" as="geometry" />
        </mxCell>
        <mxCell id="iNJiOeS6aKAyRJWFS6jW-12" value="&lt;font style=&quot;font-size: 12px;&quot;&gt;Model Evaluation&lt;/font&gt;" style="rounded=1;whiteSpace=wrap;html=1;absoluteArcSize=1;arcSize=14;strokeWidth=2;" vertex="1" parent="1">
          <mxGeometry x="240" y="150" width="170" height="60" as="geometry" />
        </mxCell>
        <mxCell id="iNJiOeS6aKAyRJWFS6jW-25" style="edgeStyle=orthogonalEdgeStyle;rounded=0;orthogonalLoop=1;jettySize=auto;html=1;" edge="1" parent="1" source="iNJiOeS6aKAyRJWFS6jW-13" target="iNJiOeS6aKAyRJWFS6jW-14">
          <mxGeometry relative="1" as="geometry">
            <Array as="points">
              <mxPoint x="30" y="180" />
              <mxPoint x="30" y="270" />
            </Array>
          </mxGeometry>
        </mxCell>
        <mxCell id="iNJiOeS6aKAyRJWFS6jW-13" value="&lt;font style=&quot;font-size: 12px;&quot;&gt;Model Optimization&lt;/font&gt;" style="rounded=1;whiteSpace=wrap;html=1;absoluteArcSize=1;arcSize=14;strokeWidth=2;" vertex="1" parent="1">
          <mxGeometry x="50" y="150" width="160" height="60" as="geometry" />
        </mxCell>
        <mxCell id="iNJiOeS6aKAyRJWFS6jW-26" style="edgeStyle=orthogonalEdgeStyle;rounded=0;orthogonalLoop=1;jettySize=auto;html=1;" edge="1" parent="1" source="iNJiOeS6aKAyRJWFS6jW-14" target="iNJiOeS6aKAyRJWFS6jW-21">
          <mxGeometry relative="1" as="geometry" />
        </mxCell>
        <mxCell id="iNJiOeS6aKAyRJWFS6jW-14" value="&lt;font style=&quot;font-size: 12px;&quot;&gt;Final Testing&lt;/font&gt;" style="rounded=1;whiteSpace=wrap;html=1;absoluteArcSize=1;arcSize=14;strokeWidth=2;" vertex="1" parent="1">
          <mxGeometry x="50" y="240" width="160" height="60" as="geometry" />
        </mxCell>
        <mxCell id="iNJiOeS6aKAyRJWFS6jW-27" style="edgeStyle=orthogonalEdgeStyle;rounded=0;orthogonalLoop=1;jettySize=auto;html=1;" edge="1" parent="1" source="iNJiOeS6aKAyRJWFS6jW-21" target="iNJiOeS6aKAyRJWFS6jW-22">
          <mxGeometry relative="1" as="geometry" />
        </mxCell>
        <mxCell id="iNJiOeS6aKAyRJWFS6jW-21" value="&lt;font style=&quot;font-size: 12px;&quot;&gt;Interface Development&lt;/font&gt;" style="rounded=1;whiteSpace=wrap;html=1;absoluteArcSize=1;arcSize=14;strokeWidth=2;" vertex="1" parent="1">
          <mxGeometry x="240" y="240" width="170" height="60" as="geometry" />
        </mxCell>
        <mxCell id="iNJiOeS6aKAyRJWFS6jW-28" style="edgeStyle=orthogonalEdgeStyle;rounded=0;orthogonalLoop=1;jettySize=auto;html=1;" edge="1" parent="1" source="iNJiOeS6aKAyRJWFS6jW-22" target="iNJiOeS6aKAyRJWFS6jW-23">
          <mxGeometry relative="1" as="geometry" />
        </mxCell>
        <mxCell id="iNJiOeS6aKAyRJWFS6jW-22" value="&lt;font style=&quot;font-size: 12px;&quot;&gt;Deployment&lt;/font&gt;" style="rounded=1;whiteSpace=wrap;html=1;absoluteArcSize=1;arcSize=14;strokeWidth=2;" vertex="1" parent="1">
          <mxGeometry x="440" y="240" width="180" height="60" as="geometry" />
        </mxCell>
        <mxCell id="iNJiOeS6aKAyRJWFS6jW-23" value="&lt;font style=&quot;font-size: 12px;&quot;&gt;Maintenance and Updates&lt;/font&gt;" style="rounded=1;whiteSpace=wrap;html=1;absoluteArcSize=1;arcSize=14;strokeWidth=2;" vertex="1" parent="1">
          <mxGeometry x="650" y="240" width="180" height="60" as="geometry" />
        </mxCell>
      </root>
    </mxGraphModel>
  </diagram>
</mxfile>
